<svg width="119" height="42" viewBox="0 0 119 42" fill="none" xmlns="http://www.w3.org/2000/svg">
<rect width="119" height="40" rx="12" fill="#0744D3"/>
<path d="M18.2207 20.8848L16.6963 16.4482L15.0762 20.8848H18.2207ZM15.9854 14.958H17.5234L21.167 25H19.6768L18.6582 21.9922H14.6865L13.5996 25H12.2051L15.9854 14.958ZM25.0635 17.4668C25.8883 17.4668 26.5583 17.6673 27.0732 18.0684C27.5928 18.4694 27.9049 19.1598 28.0098 20.1396H26.8135C26.7406 19.6885 26.5742 19.3148 26.3145 19.0186C26.0547 18.7178 25.6377 18.5674 25.0635 18.5674C24.2796 18.5674 23.7191 18.9502 23.3818 19.7158C23.1631 20.2126 23.0537 20.8255 23.0537 21.5547C23.0537 22.2884 23.2087 22.9059 23.5186 23.4072C23.8285 23.9085 24.3161 24.1592 24.9814 24.1592C25.4919 24.1592 25.8952 24.0042 26.1914 23.6943C26.4922 23.3799 26.6995 22.9515 26.8135 22.4092H28.0098C27.873 23.3799 27.5312 24.0908 26.9844 24.542C26.4375 24.9886 25.738 25.2119 24.8857 25.2119C23.9287 25.2119 23.1654 24.8633 22.5957 24.166C22.026 23.4642 21.7412 22.5892 21.7412 21.541C21.7412 20.2559 22.0534 19.2555 22.6777 18.54C23.3021 17.8245 24.0973 17.4668 25.0635 17.4668ZM29.4863 15.6348H30.7305V17.6787H31.8994V18.6836H30.7305V23.4619C30.7305 23.7171 30.8171 23.888 30.9902 23.9746C31.0859 24.0247 31.2454 24.0498 31.4688 24.0498C31.528 24.0498 31.5918 24.0498 31.6602 24.0498C31.7285 24.0452 31.8083 24.0384 31.8994 24.0293V25C31.7581 25.041 31.61 25.0706 31.4551 25.0889C31.3047 25.1071 31.1406 25.1162 30.9629 25.1162C30.3887 25.1162 29.999 24.9704 29.7939 24.6787C29.5889 24.3825 29.4863 23.9997 29.4863 23.5303V18.6836H28.4951V17.6787H29.4863V15.6348ZM33.1367 17.7129H34.3877V25H33.1367V17.7129ZM33.1367 14.958H34.3877V16.3525H33.1367V14.958ZM36.8555 17.6787L38.8105 23.6396L40.8545 17.6787H42.2012L39.4395 25H38.127L35.4268 17.6787H36.8555ZM46.3027 17.5146C46.8223 17.5146 47.3258 17.6377 47.8135 17.8838C48.3011 18.1253 48.6725 18.4398 48.9277 18.8271C49.1738 19.1963 49.3379 19.627 49.4199 20.1191C49.4928 20.4564 49.5293 20.9941 49.5293 21.7324H44.1631C44.1859 22.4753 44.3613 23.0723 44.6895 23.5234C45.0176 23.9701 45.5257 24.1934 46.2139 24.1934C46.8564 24.1934 47.3691 23.9814 47.752 23.5576C47.9707 23.3115 48.1257 23.0267 48.2168 22.7031H49.4268C49.3949 22.972 49.2878 23.2728 49.1055 23.6055C48.9277 23.9336 48.7272 24.2025 48.5039 24.4121C48.1302 24.7767 47.6676 25.0228 47.1162 25.1504C46.82 25.2233 46.485 25.2598 46.1113 25.2598C45.1999 25.2598 44.4274 24.9294 43.7939 24.2686C43.1605 23.6032 42.8438 22.6735 42.8438 21.4795C42.8438 20.3037 43.1628 19.349 43.8008 18.6152C44.4388 17.8815 45.2728 17.5146 46.3027 17.5146ZM48.2646 20.7549C48.2145 20.2217 48.0983 19.7956 47.916 19.4766C47.5788 18.8841 47.016 18.5879 46.2275 18.5879C45.6624 18.5879 45.1885 18.793 44.8057 19.2031C44.4229 19.6087 44.2201 20.126 44.1973 20.7549H48.2646Z" fill="white"/>
<g filter="url(#filter0_dd_3509_18507)">
<rect x="63" y="4" width="52" height="32" rx="8" fill="white"/>
</g>
<defs>
<filter id="filter0_dd_3509_18507" x="62" y="3" width="54" height="39" filterUnits="userSpaceOnUse" color-interpolation-filters="sRGB">
<feFlood flood-opacity="0" result="BackgroundImageFix"/>
<feColorMatrix in="SourceAlpha" type="matrix" values="0 0 0 0 0 0 0 0 0 0 0 0 0 0 0 0 0 0 127 0" result="hardAlpha"/>
<feOffset/>
<feGaussianBlur stdDeviation="0.5"/>
<feColorMatrix type="matrix" values="0 0 0 0 0 0 0 0 0 0 0 0 0 0 0 0 0 0 0.4 0"/>
<feBlend mode="normal" in2="BackgroundImageFix" result="effect1_dropShadow_3509_18507"/>
<feColorMatrix in="SourceAlpha" type="matrix" values="0 0 0 0 0 0 0 0 0 0 0 0 0 0 0 0 0 0 127 0" result="hardAlpha"/>
<feMorphology radius="6" operator="erode" in="SourceAlpha" result="effect2_dropShadow_3509_18507"/>
<feOffset dy="6"/>
<feGaussianBlur stdDeviation="3"/>
<feColorMatrix type="matrix" values="0 0 0 0 0 0 0 0 0 0 0 0 0 0 0 0 0 0 0.16 0"/>
<feBlend mode="normal" in2="effect1_dropShadow_3509_18507" result="effect2_dropShadow_3509_18507"/>
<feBlend mode="normal" in="SourceGraphic" in2="effect2_dropShadow_3509_18507" result="shape"/>
</filter>
</defs>
</svg>
