<?xml version="1.0" encoding="utf-8"?>
<!-- Generator: Adobe Illustrator 16.0.0, SVG Export Plug-In . SVG Version: 6.00 Build 0)  -->
<!DOCTYPE svg PUBLIC "-//W3C//DTD SVG 1.1//EN" "http://www.w3.org/Graphics/SVG/1.1/DTD/svg11.dtd">
<svg version="1.1" id="Layer_1" xmlns="http://www.w3.org/2000/svg" xmlns:xlink="http://www.w3.org/1999/xlink" x="0px" y="0px"
	 width="296px" height="100px" viewBox="0 0 296 100" enable-background="new 0 0 296 100" xml:space="preserve">
<defs>
	<filter id="Adobe_OpacityMaskFilter" filterUnits="userSpaceOnUse" x="58.267" y="0.003" width="21.338" height="22.146">
		<feColorMatrix  type="matrix" values="1 0 0 0 0  0 1 0 0 0  0 0 1 0 0  0 0 0 1 0"/>
	</filter>
</defs>
<mask maskUnits="userSpaceOnUse" x="58.267" y="0.003" width="21.338" height="22.146" id="mask0_691_18017">
	<path fill="#FFFFFF" filter="url(#Adobe_OpacityMaskFilter)" d="M57.785,0h21.877v22.66H57.785V0z"/>
</mask>
<g mask="url(#mask0_691_18017)">
	<path fill="#008037" d="M77.508,5.654c-0.228,2.46-0.315,4.9-0.276,7.292c0.709-0.511,1.415-1.031,2.119-1.563
		c-0.188-3.598-0.114-7.381,0.254-11.379c-6.683,9.036-13.638,16.862-21.338,21.347c0.109,0.25,0.204,0.514,0.289,0.798
		C64.372,18.76,72.457,12.479,77.508,5.654z"/>
</g>
<defs>
	<filter id="Adobe_OpacityMaskFilter_1_" filterUnits="userSpaceOnUse" x="81.732" y="22.725" width="5.355" height="14.237">
		<feColorMatrix  type="matrix" values="1 0 0 0 0  0 1 0 0 0  0 0 1 0 0  0 0 0 1 0"/>
	</filter>
</defs>
<mask maskUnits="userSpaceOnUse" x="81.732" y="22.725" width="5.355" height="14.237" id="mask1_691_18017">
	<path fill="#FFFFFF" filter="url(#Adobe_OpacityMaskFilter_1_)" d="M81.345,22.66h5.743v14.912h-5.743V22.66z"/>
</mask>
<g mask="url(#mask1_691_18017)">
	<path fill="#008037" d="M83.189,26.48c-0.521,1.107-1.006,2.23-1.457,3.375c0.044,2.381,0.199,4.749,0.46,7.107
		c1.081-4.797,2.678-9.546,4.896-14.237c-1.757,0.617-3.51,1.186-5.257,1.693c-0.046,0.843-0.077,1.686-0.094,2.525
		c0.495-0.144,0.979-0.294,1.453-0.459V26.48z"/>
</g>
<path fill="#008037" d="M57.649,24.277c-0.044-0.332-0.103-0.654-0.18-0.962c8.929-1.755,17.602-7.36,26.183-14.364
	c-4.321,17.143-2.592,32.347,2.13,46.594l-25.173-8.676c0.186-0.682,0.333-1.401,0.449-2.142l20.448,6.795
	c-3.569-10.763-4.264-24.421-1.003-37.373c-6.482,5.291-16.11,8.806-22.854,10.132V24.277z"/>
<path fill="#008037" d="M76.743,23.073l0.044-0.403C76.771,22.804,76.758,22.938,76.743,23.073z"/>
<path fill="#008037" d="M76.893,21.798c0.015-0.131,0.033-0.265,0.048-0.396C76.925,21.537,76.908,21.667,76.893,21.798z"/>
<path fill="#008037" d="M76.943,21.395c0.018-0.131,0.035-0.266,0.053-0.396L76.943,21.395z"/>
<path fill="#008037" d="M77.002,20.948c0.018-0.117,0.033-0.238,0.05-0.355C77.035,20.714,77.017,20.831,77.002,20.948z"/>
<path fill="#008037" d="M77.059,20.544c0.02-0.134,0.037-0.272,0.057-0.403C77.096,20.275,77.078,20.41,77.059,20.544z"/>
<path fill="#008037" d="M75.801,12.085c0.002,0.613,0.013,1.23,0.031,1.843c-0.526,0.363-1.056,0.72-1.589,1.073
	c-0.063-0.044-0.125-0.096-0.184-0.154c-0.236-0.226-0.423-0.538-0.552-0.894c-1.53,1.521-3.143,2.974-4.781,4.331
	c-0.962,0.507-1.929,0.983-2.901,1.422c1.08-0.815,2.147-1.669,3.197-2.553c2.058-1.734,4.076-3.622,5.998-5.702l0.778-0.843
	l0.007,1.477H75.801z"/>
<path fill="#008037" d="M9.72,19.267c0.103,1.319,0.164,2.642,0.19,3.961l0.526,0.144c-0.009-0.548-0.026-1.096-0.048-1.645
	c0.3-0.017,0.6-0.158,0.872-0.432c0.256-0.257,0.456-0.603,0.589-0.994l7.937,5.578l2.058,0.552L9.608,17.832L9.72,19.267z"/>
<path fill="#008037" d="M5.493,22.046C5.331,17.605,4.825,13.158,4.054,8.71l22.125,15.865l0.263,0.185
	c-0.265,0.579-0.493,1.206-0.699,1.86l-0.581-0.408L7.527,13.819c0.502,2.902,0.8,5.928,0.881,9.008L5.493,22.046z"/>
<defs>
	<filter id="Adobe_OpacityMaskFilter_2_" filterUnits="userSpaceOnUse" x="0" y="38.967" width="4.99" height="13.936">
		<feColorMatrix  type="matrix" values="1 0 0 0 0  0 1 0 0 0  0 0 1 0 0  0 0 0 1 0"/>
	</filter>
</defs>
<mask maskUnits="userSpaceOnUse" x="0" y="38.967" width="4.99" height="13.936" id="mask2_691_18017">
	<path fill="#FFFFFF" filter="url(#Adobe_OpacityMaskFilter_2_)" d="M0,38.449h5.055v14.912H0V38.449z"/>
</mask>
<g mask="url(#mask2_691_18017)">
	<path fill="#008037" d="M3.613,49.041c0.467-1.089,0.896-2.2,1.293-3.324c-0.11-2.269-0.324-4.52-0.642-6.75
		C3.37,43.62,1.981,48.266,0,52.902c1.661-0.713,3.317-1.381,4.97-1.984c0.018-0.812,0.024-1.617,0.018-2.419
		C4.519,48.667,4.061,48.849,3.613,49.041z"/>
</g>
<path fill="#008037" d="M24.452,50.479l0.02,1.052c-7.117,2.844-14.002,8.083-20.795,14.278C7.307,49.14,5.221,34.748,0.3,21.477
	l24.283,6.517c-0.16,0.665-0.278,1.361-0.368,2.077L4.498,25.02c3.719,10.026,4.777,23.016,2.034,35.609
	c4.972-4.537,12.012-8.07,17.92-10.146V50.479z"/>
<path fill="#008037" d="M9.08,54.522c0.975-8.418,0.482-17.163-1.562-25.12l-0.344-1.34l17.339,4.441l-0.046,0.761
	c-0.043,0.702-0.081,1.405-0.127,2.111c-0.087,1.309-0.129,2.666-0.103,3.985c0.002,0.175,0.011,0.449,0.026,0.774l0.066,3.601
	c-0.807-1.765-0.646-6.37-0.508-8.446c0.046-0.688,0.083-1.395,0.127-2.104L8.004,29.102l1.742,0.445
	c-0.063,0.432-0.199,0.846-0.405,1.199c-0.217,0.37-0.484,0.627-0.769,0.764c1.4,6.527,1.821,13.487,1.295,20.326l0.022-0.295
	c0.467-0.082,0.953,0.138,1.326,0.662c0.215,0.309,0.368,0.682,0.456,1.09l-0.165,0.103c4.128-2.618,8.693-4.691,12.887-6.12
	l0.015,0.826c-2.609,0.891-5.202,1.98-7.729,3.244c-2.329,1.169-4.639,2.502-6.872,4.064l-0.903,0.634L9.08,54.522z"/>
<path fill="#008037" d="M9.866,51.844l-0.03,0.386C9.847,52.102,9.855,51.971,9.866,51.844z"/>
<path fill="#008037" d="M9.725,53.461c-0.013,0.127-0.026,0.255-0.04,0.383L9.725,53.461z"/>
<path fill="#100F0D" d="M41.973,19.165v-0.23c0-0.792,0.173-1.525,0.467-2.107c0.403-0.806,1.032-1.326,1.735-1.326h3.072
	c1.21,0,2.202,1.545,2.202,3.433v31.833c0,0.288-0.021,0.565-0.065,0.832h-7.345c-0.043-0.267-0.066-0.544-0.066-0.832v-0.227
	C41.973,42.876,41.973,26.854,41.973,19.165z M58.039,30.222l-0.697,16.485c-0.097,0.223-0.344,0.593-0.432,0.723
	c-0.434,0.644-0.872,1.254-1.286,1.926C54.859,50.59,54.04,51.6,52.89,51.6h-1.747c-0.042-0.064-0.079-0.137-0.116-0.209
	c-0.292-0.582-0.465-1.315-0.465-2.107V20.995c0-0.792,0.173-1.525,0.465-2.107c0.405-0.805,1.034-1.326,1.737-1.326h3.072
	c1.209,0,2.202,1.545,2.202,3.437V30.222z M40.829,49.979v0.031c0,0.572-0.092,1.114-0.252,1.589h-1.019
	c-0.76,0-1.492,0.412-2.02,1.289c-0.105,0.178-0.197,0.363-0.276,0.555h-1.707c-0.703,0-1.332-0.518-1.735-1.326
	c-0.292-0.582-0.467-1.315-0.467-2.107V21.721c0-0.792,0.175-1.525,0.467-2.107c0.403-0.805,1.032-1.326,1.735-1.326h3.072
	c1.212,0,2.2,1.545,2.2,3.434v28.258H40.829z M58.63,44.552l0.55,0.436c0.035-0.175,0.07-0.353,0.101-0.531l-0.436-0.144
	l0.305-3.334c0.068-0.74,0.131-1.48,0.204-2.217c0.121-1.251,0.2-2.525,0.213-3.793c0.006-0.462-0.009-1.49-0.083-2.183
	l-0.405-0.229l-0.513,12.188l0.068-0.192H58.63z M50.821,65.039c7.641,0,8.712-1.816,12.271-8.18l-5.338-4.313l-1.696-1.37
	c-0.517,0.757-1.074,1.384-1.707,1.771l-0.011,0.006l-0.107,0.063l-0.053,0.031l-0.006,0.003l-0.05,0.024l-0.009,0.006l-0.052,0.024
	l-0.007,0.003l-0.052,0.024l-0.009,0.003l-0.053,0.024l-0.007,0.003l-0.021,0.008l-0.04,0.017l-0.057,0.021l-0.006,0.004
	l-0.057,0.018l-0.004,0.003l-0.028,0.007l-0.099,0.031l-0.057,0.017h-0.006L53.499,53.3l-0.004,0.003l-0.062,0.011l-0.004,0.003
	l-0.062,0.011l-0.002,0.003l-0.063,0.011h-0.004l-0.064,0.007h-0.002l-0.068,0.01l-0.066,0.008l-0.068,0.003h-0.068l-0.07,0.004
	c0,0.003-4.284,0-4.654,0h-5.413c-1.705,0-5.169-1.173-4.772,3.11c0.167,1.811,0.872,3.948,1.128,5.116
	c0.418,1.888,1.751,3.437,2.963,3.437h8.677V65.039z M25.074,46.755v-17.99l0.011-0.038l-0.011-0.003v-2.731
	c0-0.795,0.175-1.525,0.467-2.107c0.403-0.809,1.032-1.33,1.733-1.33h3.074c1.209,0,2.2,1.549,2.2,3.437v23.53
	c0,1.891-0.99,3.433-2.2,3.433h-3.074c-0.701,0-1.33-0.518-1.733-1.326c-0.292-0.582-0.467-1.315-0.467-2.107v-2.728l0.011-0.007
	l-0.011-0.038V46.755z"/>
<path fill="#100F0D" d="M60.2,63.045c-0.364,0.486-0.75,0.938-1.159,1.34c-2.457,2.389-5.774,2.474-8.577,2.474H42.19
	c-0.876,0-1.753-0.556-2.461-1.438c-0.633-0.785-1.135-1.834-1.387-2.975c-0.228-1.028-0.546-2.021-0.778-3.066
	c-0.151-0.686-0.282-1.398-0.348-2.121c-0.046-0.49-0.055-0.98-0.018-1.453H35.91c-0.984,0-1.906-0.709-2.509-1.912l-0.092-0.195
	c-0.583,1.011-1.426,1.645-2.362,1.645h-2.93c-0.581,0-1.14-0.243-1.626-0.695c0,9.316,1.681,16.646,7.126,18.773
	c-0.121-0.044,1.161,4.859,1.33,5.723c0.445,2.262,0.828,4.924,1.12,8.086h14.949c0.289-3.162,0.672-5.824,1.115-8.086
	c0.484-2.453,1.039-4.438,1.626-6.086C53.464,73.133,60.2,70.08,60.2,63.045z M57.357,88.411l-1.952-5.798
	c-0.252,1.457-0.474,2.995-0.69,4.695l-0.062,0.489C55.554,87.979,56.457,88.186,57.357,88.411z M51.595,85.893
	c-0.048,0.453-0.092,0.901-0.136,1.357l0.434,0.059c0.605,0.092,1.209,0.194,1.812,0.308l-0.043-0.239
	c-0.452-2.45-0.068-5.254,0.662-7.98l-0.333-0.987l-0.723-2.146c-0.272,1.021-0.508,2.07-0.714,3.125
	C52.134,81.514,51.829,83.696,51.595,85.893z"/>
<path fill="#008037" d="M54.182,87.14c0.572-4.475,1.144-9.118,3.828-15.927C56.01,75.727,53.291,82.295,54.182,87.14z
	 M29.812,83.508c-0.425-3.338-0.853-6.795-2.853-11.873C28.449,75,30.478,79.899,29.812,83.508z M32.719,87.14
	c0.892-4.845-1.83-11.413-3.828-15.927C31.575,78.021,32.147,82.665,32.719,87.14z M57.09,83.508
	c-0.666-3.608,1.363-8.508,2.853-11.873C57.942,76.713,57.515,80.17,57.09,83.508z"/>
<path fill="#008037" d="M54.331,87.027l-0.125,0.986l-0.151-0.815c-0.456-2.478,0.004-5.38,0.835-8.23
	c0.822-2.82,2.005-5.596,3.006-7.857l0.004-0.014l0.221,0.223c-2.641,6.702-3.228,11.298-3.791,15.711V87.027z M54.18,86.108
	c0.398-3.08,0.87-6.305,2.079-10.311c-0.412,1.087-0.797,2.21-1.128,3.338C54.434,81.537,54,83.963,54.18,86.108z M29.682,83.549
	l-0.013-0.113c-0.42-3.282-0.857-6.702-2.822-11.691l0.219-0.226l0.006,0.014c0.748,1.686,1.628,3.759,2.242,5.862
	c0.623,2.139,0.969,4.311,0.625,6.172l-0.149,0.815L29.682,83.549z M28.586,76.052c0.653,2.385,0.962,4.406,1.214,6.332
	c0.063-1.497-0.245-3.166-0.727-4.821C28.924,77.056,28.762,76.549,28.586,76.052z M32.721,86.108
	c0.18-2.146-0.254-4.571-0.951-6.973c-0.329-1.128-0.717-2.248-1.126-3.331C31.852,79.804,32.323,83.028,32.721,86.108z
	 M32.009,78.968c0.831,2.851,1.292,5.753,0.835,8.23l-0.149,0.815l-0.125-0.977c-0.563-4.414-1.15-9.012-3.793-15.718l0.221-0.223
	l0.004,0.011C30.006,73.369,31.188,76.145,32.009,78.968z M56.963,83.566c-0.344-1.861,0.002-4.033,0.625-6.172
	c0.613-2.104,1.495-4.174,2.242-5.862l0.004-0.011l0.221,0.223c-1.965,4.989-2.401,8.409-2.822,11.691l-0.121,0.946L56.963,83.566z
	 M57.829,77.566c-0.482,1.651-0.793,3.32-0.728,4.82c0.252-1.929,0.561-3.947,1.214-6.335c-0.175,0.5-0.34,1.004-0.486,1.511V77.566
	z"/>
<defs>
	<filter id="Adobe_OpacityMaskFilter_3_" filterUnits="userSpaceOnUse" x="8.055" y="88.67" width="70.176" height="11.323">
		<feColorMatrix  type="matrix" values="1 0 0 0 0  0 1 0 0 0  0 0 1 0 0  0 0 0 1 0"/>
	</filter>
</defs>
<mask maskUnits="userSpaceOnUse" x="8.055" y="88.67" width="70.176" height="11.323" id="mask3_691_18017">
	<path fill="#FFFFFF" filter="url(#Adobe_OpacityMaskFilter_3_)" d="M7.86,88.449h70.68V100H7.86V88.449z"/>
</mask>
<g mask="url(#mask3_691_18017)">
	<path fill="#008037" d="M78.231,99.993c-23.551-8.022-46.849-8.022-70.176,0C31.113,85.611,54.471,84.197,78.231,99.993z"/>
</g>
<path fill="#008037" d="M61.438,41.489l14.725,4.893c0.081-0.446,0.236-0.867,0.462-1.22c0.239-0.374,0.526-0.62,0.828-0.743
	c-1.24-6.826-1.47-14.025-0.745-21.032c-0.491,0.048-0.99-0.216-1.363-0.795c-0.215-0.339-0.362-0.744-0.443-1.172l0.171-0.096
	c-5.546,3.05-11.789,5.147-17.037,6.188v1.069c0.383-0.048,0.721-0.042,1.229,0.243l1.569,0.891
	c1.438,0.819,1.047,7.038,0.802,9.584c-0.07,0.716-0.134,1.453-0.202,2.19H61.438z M69.462,36.952
	c-1.28,0.191-2.415-1.275-2.538-3.269c-0.123-1.998,0.817-3.773,2.097-3.961c1.556-0.233,2.794,1.953,2.505,4.304
	C71.337,35.567,70.514,36.794,69.462,36.952z"/>
<path fill="#008037" d="M69.186,33.477l0.068,1.878c-0.603,0.044-0.614-0.891-0.631-0.956c-0.007-0.027-0.073-0.103-0.075,0.13
	c-0.002,0.182-0.022,0.894,0.042,0.973c0.118,0.15,0.5,0.164,0.673,0.144l0.028,0.757l0.261-0.021l-0.028-0.802
	c0.728-0.322,0.89-1.614,0.263-2.481l-0.366-0.421l-0.055-1.597c0.517-0.027,0.545,0.72,0.557,0.747
	c0.008,0.021,0.077,0.099,0.068-0.165l-0.026-0.788l-0.611-0.075l-0.024-0.757l-0.261,0.021l0.029,0.809
	c-0.66,0.315-0.77,1.401-0.241,2.193c0.081,0.124,0.182,0.25,0.302,0.38L69.186,33.477z M69.105,31.185l0.042,1.186
	C68.837,31.973,68.809,31.462,69.105,31.185z M69.458,33.782c0.396,0.5,0.418,1.192,0.053,1.477L69.458,33.782z"/>
<path fill="#008037" d="M17.212,41.458l0.081,2.258c-0.726,0.055-0.739-1.069-0.763-1.151c-0.006-0.031-0.085-0.12-0.09,0.161
	c-0.002,0.216-0.024,1.076,0.05,1.172c0.145,0.182,0.605,0.199,0.813,0.175l0.033,0.911l0.313-0.027l-0.035-0.966
	c0.879-0.384,1.076-1.943,0.318-2.984l-0.44-0.511l-0.066-1.922c0.625-0.034,0.658,0.864,0.671,0.898
	c0.011,0.024,0.094,0.12,0.081-0.195l-0.031-0.949l-0.736-0.092l-0.028-0.915l-0.316,0.027l0.035,0.977
	c-0.795,0.38-0.927,1.686-0.292,2.642c0.101,0.147,0.224,0.301,0.366,0.456L17.212,41.458z M17.113,38.696l0.052,1.429
	C16.793,39.648,16.756,39.028,17.113,38.696z M17.541,41.824c0.478,0.603,0.501,1.436,0.061,1.778L17.541,41.824z"/>
<text transform="matrix(1 0 0 1 91.5757 69.2129)" fill="#004AAD" font-family="'MyriadPro-Bold'" font-size="54.0056">PasLoan</text>
</svg>
