<svg width="296" height="100" viewBox="0 0 296 100" fill="none" xmlns="http://www.w3.org/2000/svg">
<mask id="mask0_691_18017" style="mask-type:luminance" maskUnits="userSpaceOnUse" x="57" y="0" width="23" height="23">
<path d="M57.7847 0H79.6619V22.6596H57.7847V0Z" fill="white"/>
</mask>
<g mask="url(#mask0_691_18017)">
<path fill-rule="evenodd" clip-rule="evenodd" d="M77.5077 5.65376C77.2799 8.114 77.1922 10.5537 77.2317 12.9454C77.9416 12.4348 78.6472 11.914 79.3506 11.3829C79.1621 7.78505 79.2366 4.00217 79.6047 0.00341797C72.9215 9.03916 65.9666 16.8653 58.2666 21.3507C58.3762 21.6008 58.4704 21.8646 58.5558 22.149C64.3714 18.7602 72.457 12.4794 77.5077 5.65376Z" fill="#008037"/>
</g>
<mask id="mask1_691_18017" style="mask-type:luminance" maskUnits="userSpaceOnUse" x="81" y="22" width="7" height="16">
<path d="M81.3447 22.6595H87.0879V37.5718H81.3447V22.6595Z" fill="white"/>
</mask>
<g mask="url(#mask1_691_18017)">
<path fill-rule="evenodd" clip-rule="evenodd" d="M83.1896 26.4804C82.6681 27.5872 82.1838 28.7111 81.7324 29.8556C81.7762 32.237 81.9318 34.6047 82.1926 36.9622C83.2729 32.165 84.8703 27.4159 87.0878 22.725C85.3304 23.3417 83.5774 23.9106 81.831 24.4177C81.785 25.2606 81.7543 26.1035 81.7368 26.943C82.232 26.7991 82.7163 26.6483 83.1896 26.4839V26.4804Z" fill="#008037"/>
</g>
<path fill-rule="evenodd" clip-rule="evenodd" d="M57.6489 24.277C57.6051 23.9447 57.5459 23.6226 57.4692 23.3142C66.3985 21.5598 75.0713 15.954 83.6522 8.9502C79.3311 26.0931 81.06 41.2966 85.782 55.5441L60.6093 46.8681C60.7955 46.1862 60.9423 45.4667 61.0585 44.7265L81.507 51.5213C77.9375 40.7586 77.2428 27.1005 80.5034 14.1482C74.0217 19.4388 64.3935 22.9544 57.6489 24.2805V24.277Z" fill="#008037"/>
<path fill-rule="evenodd" clip-rule="evenodd" d="M76.7432 23.0731L76.7869 22.6698C76.7716 22.8042 76.7585 22.9386 76.7432 23.0731Z" fill="#008037"/>
<path fill-rule="evenodd" clip-rule="evenodd" d="M76.8926 21.7985C76.9079 21.6675 76.9254 21.5331 76.9407 21.4021C76.9254 21.5365 76.9079 21.6675 76.8926 21.7985Z" fill="#008037"/>
<path fill-rule="evenodd" clip-rule="evenodd" d="M76.9429 21.3944C76.9604 21.2634 76.9779 21.129 76.9954 20.998L76.9429 21.3944Z" fill="#008037"/>
<path fill-rule="evenodd" clip-rule="evenodd" d="M77.002 20.9481C77.0195 20.831 77.0348 20.7103 77.0523 20.5931C77.0348 20.7138 77.0173 20.831 77.002 20.9481Z" fill="#008037"/>
<path fill-rule="evenodd" clip-rule="evenodd" d="M77.0586 20.5441C77.0783 20.4097 77.0958 20.2718 77.1155 20.1409C77.0958 20.2753 77.0783 20.4097 77.0586 20.5441Z" fill="#008037"/>
<path fill-rule="evenodd" clip-rule="evenodd" d="M75.8009 12.0855C75.8031 12.6988 75.814 13.3156 75.8315 13.9289C75.3056 14.2922 74.7754 14.6485 74.2429 15.0014C74.1794 14.9569 74.118 14.9055 74.0588 14.8473C73.8222 14.6211 73.6359 14.3093 73.5067 13.9529C71.9772 15.4743 70.3644 16.9272 68.7254 18.2841C67.7635 18.7912 66.7971 19.2675 65.8242 19.7061C66.9045 18.8905 67.9716 18.0373 69.0212 17.1533C71.0788 15.4195 73.0969 13.5315 75.0186 11.4516L75.7965 10.6086L75.8031 12.0855H75.8009Z" fill="#008037"/>
<path fill-rule="evenodd" clip-rule="evenodd" d="M9.72015 19.2673C9.82314 20.5865 9.88449 21.9091 9.91079 23.2283L10.4367 23.3722C10.4279 22.824 10.4104 22.2757 10.3885 21.7275C10.6887 21.7104 10.9889 21.5699 11.2606 21.2958C11.517 21.0388 11.7164 20.6927 11.85 20.3021L19.7866 25.8804L21.8442 26.4321L9.6084 17.8315L9.72015 19.2673Z" fill="#008037"/>
<path fill-rule="evenodd" clip-rule="evenodd" d="M5.49335 22.0464C5.3312 17.6056 4.82502 13.158 4.05371 8.71033L26.1785 24.5751L26.4415 24.7602C26.1763 25.3392 25.9484 25.9663 25.7425 26.6208L25.1618 26.213L7.5268 13.8193C8.02859 16.7215 8.3266 19.7472 8.40767 22.8276L5.49335 22.0464Z" fill="#008037"/>
<mask id="mask2_691_18017" style="mask-type:luminance" maskUnits="userSpaceOnUse" x="0" y="38" width="6" height="16">
<path d="M0 38.4491H5.05516V53.3613H0V38.4491Z" fill="white"/>
</mask>
<g mask="url(#mask2_691_18017)">
<path fill-rule="evenodd" clip-rule="evenodd" d="M3.61333 49.0405C4.08006 47.9509 4.50954 46.8407 4.90615 45.7168C4.79659 43.4484 4.58185 41.1972 4.26412 38.9666C3.3701 43.6198 1.98087 48.2661 0 52.9022C1.66095 52.1895 3.31751 51.5213 4.9697 50.9183C4.98723 50.1062 4.9938 49.301 4.98723 48.4991C4.51831 48.667 4.06034 48.8486 3.61333 49.0405Z" fill="#008037"/>
</g>
<path fill-rule="evenodd" clip-rule="evenodd" d="M24.4515 50.4793L24.4712 51.5312C17.3541 54.3752 10.4693 59.6144 3.67648 65.8095C7.30734 49.1395 5.22129 34.7481 0.299805 21.4772L24.583 27.9944C24.423 28.6592 24.3047 29.3548 24.2148 30.0709L4.49819 25.0202C8.2167 35.0462 9.27506 48.0362 6.53165 60.6286C11.5035 56.0919 18.5439 52.5592 24.4515 50.4827V50.4793Z" fill="#008037"/>
<path fill-rule="evenodd" clip-rule="evenodd" d="M9.08019 54.5227C10.0553 46.1038 9.56226 37.3593 7.51785 29.4029L7.17383 28.0631L24.513 32.5039L24.467 33.2646C24.4231 33.967 24.3859 34.6694 24.3399 35.3753C24.2522 36.6842 24.2106 38.0411 24.2369 39.3604C24.2391 39.5351 24.2478 39.8092 24.2632 40.1348L24.3289 43.736C23.5226 41.9714 23.6825 37.3661 23.8206 35.2896C23.8666 34.6009 23.9038 33.8951 23.9477 33.1858L8.0043 29.1013L9.74633 29.5468C9.68278 29.9785 9.54692 30.3931 9.34095 30.7461C9.12402 31.1161 8.85669 31.3731 8.57183 31.5102C9.97202 38.0377 10.3927 44.997 9.86684 51.8363L9.88876 51.5417C10.3555 51.4594 10.8419 51.6787 11.2144 52.203C11.4292 52.5114 11.5826 52.8849 11.6702 53.2926L11.5059 53.3954C15.6341 50.7775 20.1985 48.7045 24.3925 47.2756L24.4078 48.1014C21.7981 48.9923 19.2058 50.082 16.6794 51.3463C14.3501 52.5148 12.0405 53.8477 9.80768 55.4102L8.9049 56.0441L9.08019 54.5227Z" fill="#008037"/>
<path fill-rule="evenodd" clip-rule="evenodd" d="M9.86635 51.8434L9.83643 52.2294C9.84711 52.1019 9.85566 51.9709 9.86635 51.8434Z" fill="#008037"/>
<path fill-rule="evenodd" clip-rule="evenodd" d="M9.72473 53.4607C9.71151 53.5882 9.69828 53.7157 9.68506 53.8433L9.72473 53.4607Z" fill="#008037"/>
<path fill-rule="evenodd" clip-rule="evenodd" d="M41.9729 19.1648V18.9352C41.9729 18.1437 42.146 17.4104 42.4397 16.8279C42.8429 16.0227 43.4717 15.5018 44.1751 15.5018H47.2472C48.4568 15.5018 49.4494 17.0472 49.4494 18.9352V50.7676C49.4494 51.0554 49.4275 51.333 49.3837 51.6003H42.0387C41.9949 51.333 41.9729 51.0554 41.9729 50.7676V50.5415C41.9729 42.8763 41.9729 26.8539 41.9729 19.1648ZM58.039 30.2222L57.3422 46.7072C57.2458 46.9299 56.9982 47.3 56.9105 47.4302C56.4767 48.0744 56.0384 48.6843 55.6243 49.3559C54.8595 50.5894 54.04 51.6003 52.8896 51.6003H51.1432C51.1016 51.5352 51.0643 51.4632 51.0271 51.3912C50.7357 50.8087 50.5625 50.0755 50.5625 49.2839V20.9945C50.5625 20.203 50.7357 19.4697 51.0271 18.8872C51.4325 18.082 52.0613 17.5612 52.7647 17.5612H55.8368C57.0464 17.5612 58.039 19.1065 58.039 20.998V30.2222ZM40.8291 49.9795V50.0104C40.8291 50.5826 40.7371 51.124 40.5771 51.6003H39.5582C38.7979 51.6003 38.066 52.0114 37.5379 52.8886C37.4327 53.0668 37.3407 53.2518 37.2618 53.4437H35.5548C34.8515 53.4437 34.2226 52.9263 33.8194 52.1177C33.528 51.5352 33.3527 50.8019 33.3527 50.0104V21.721C33.3527 20.9294 33.528 20.1962 33.8194 19.6137C34.2226 18.8084 34.8515 18.2876 35.5548 18.2876H38.6269C39.8387 18.2876 40.8269 19.833 40.8269 21.721V49.9795H40.8291ZM58.6306 44.5519L59.1806 44.9871C59.2157 44.8123 59.2507 44.6341 59.2814 44.456L58.8454 44.312L59.15 40.978C59.2179 40.2379 59.2814 39.4978 59.3537 38.7611C59.4743 37.5104 59.5531 36.2357 59.5663 34.9679C59.5729 34.5053 59.5575 33.4774 59.483 32.7852L59.0776 32.5556L58.5649 44.7438L58.6328 44.5519H58.6306ZM50.8211 65.0391C58.4619 65.0391 59.5334 63.223 63.092 56.86L57.7541 52.546L56.0581 51.1754C55.541 51.9326 54.9844 52.5597 54.3512 52.9469L54.3402 52.9537L54.2328 53.0154L54.1803 53.0463L54.1737 53.0497L54.1233 53.0737L54.1145 53.0805L54.0619 53.1045L54.0554 53.1079L54.0028 53.1319L53.994 53.1353L53.9414 53.1593L53.9348 53.1628L53.9129 53.1696L53.8735 53.1867L53.8165 53.2073L53.8099 53.2107L53.753 53.2279L53.7486 53.2313L53.7201 53.2381L53.6215 53.269L53.5645 53.2861H53.5579L53.4988 53.2998L53.4944 53.3032L53.433 53.3135L53.4287 53.317L53.3673 53.3272L53.3651 53.3307L53.3016 53.3409H53.2972L53.2336 53.3478H53.2315L53.1635 53.3581L53.0978 53.3649L53.0299 53.3683H52.9619L52.8918 53.3718C52.8918 53.3752 48.608 53.3718 48.2377 53.3718H42.8253C41.1206 53.3718 37.6562 52.1999 38.0528 56.4831C38.2194 58.2923 38.9249 60.4304 39.1813 61.5989C39.5998 63.4869 40.9321 65.0357 42.1439 65.0357H50.8211V65.0391ZM25.0742 46.7552V28.7659L25.0852 28.7282L25.0742 28.7248V25.9938C25.0742 25.1989 25.2495 24.469 25.5409 23.8865C25.9441 23.0779 26.573 22.557 27.2742 22.557H30.3485C31.5581 22.557 32.5485 24.1058 32.5485 25.9938V49.5238C32.5485 51.4152 31.5581 52.9572 30.3485 52.9572H27.2742C26.573 52.9572 25.9441 52.4398 25.5409 51.6311C25.2495 51.0486 25.0742 50.3153 25.0742 49.5238V46.7963L25.0852 46.7894L25.0742 46.7517V46.7552Z" fill="#100F0D"/>
<path fill-rule="evenodd" clip-rule="evenodd" d="M60.1995 63.0447C59.8358 63.5313 59.4501 63.9836 59.0404 64.3845C56.584 66.7728 53.2665 66.8584 50.4639 66.8584H42.1898C41.3134 66.8584 40.4369 66.3033 39.7291 65.4193C39.0958 64.6346 38.594 63.5861 38.3421 62.4451C38.1142 61.4171 37.7964 60.4234 37.5642 59.3783C37.413 58.693 37.2815 57.9803 37.2158 57.2573C37.1697 56.7673 37.161 56.2773 37.1982 55.8045H35.9098C34.9259 55.8045 34.0034 55.0952 33.4008 53.8925L33.3088 53.6971C32.7259 54.708 31.8823 55.3419 30.9467 55.3419H28.017C27.4363 55.3419 26.8776 55.0986 26.3911 54.6463C26.3911 63.963 28.0718 71.2923 33.517 73.4202C33.3965 73.3757 34.6783 78.279 34.847 79.1425C35.2919 81.404 35.6753 84.0664 35.9668 87.2291H50.9153C51.2045 84.0664 51.588 81.404 52.0306 79.1425C52.5149 76.6891 53.0693 74.7052 53.6565 73.057C53.4637 73.1324 60.1995 70.0794 60.1995 63.0447ZM57.3575 88.4113L55.4051 82.6136C55.1531 84.0699 54.9318 85.6084 54.7149 87.3079L54.6535 87.7979C55.5541 87.9795 56.4569 88.1851 57.3575 88.4113ZM51.5946 85.8928C51.5464 86.3451 51.5025 86.7939 51.4587 87.2497L51.8926 87.3079C52.4974 87.4004 53.1021 87.5032 53.7047 87.6163L53.6609 87.3764C53.2095 84.9265 53.593 82.1236 54.3227 79.3961L53.9896 78.4092L53.2665 76.2642C52.9948 77.2853 52.7581 78.3339 52.5521 79.3892C52.1336 81.5137 51.829 83.6964 51.5946 85.8928Z" fill="#100F0D"/>
<path fill-rule="evenodd" clip-rule="evenodd" d="M54.1823 87.1399C54.7542 82.6648 55.3261 78.0219 58.0103 71.2134C56.0098 75.7261 53.2904 82.2948 54.1823 87.1399ZM29.8115 83.5077C29.3864 80.1703 28.9591 76.713 26.9585 71.6348C28.4485 74.9997 30.4776 79.8996 29.8115 83.5077ZM32.7192 87.1399C33.6111 82.2948 30.8896 75.7261 28.8912 71.2134C31.5754 78.0219 32.1473 82.6648 32.7192 87.1399ZM57.09 83.5077C56.4239 79.8996 58.453 74.9997 59.943 71.6348C57.9424 76.713 57.5151 80.1703 57.09 83.5077Z" fill="#008037"/>
<path fill-rule="evenodd" clip-rule="evenodd" d="M54.3312 87.0268L54.2063 88.0137L54.0551 87.1982C53.5993 84.7208 54.0595 81.8185 54.89 78.9676C55.7117 76.1476 56.8949 73.3721 57.8963 71.1106L57.9007 71.0969L58.122 71.3196C55.4816 78.0219 54.8944 82.6169 54.3312 87.0303V87.0268ZM54.18 86.1085C54.5788 83.0281 55.0499 79.8037 56.2595 75.7981C55.8475 76.8843 55.4619 78.0082 55.131 79.1355C54.4342 81.5375 54.0003 83.9635 54.18 86.1085ZM29.6821 83.5489L29.669 83.4358C29.2483 80.1532 28.8122 76.7336 26.8467 71.7445L27.0658 71.5184L27.0724 71.5321C27.8196 73.2179 28.7005 75.291 29.314 77.3949C29.9363 79.533 30.2825 81.7054 29.9385 83.566L29.7895 84.3816L29.6821 83.5489ZM28.5865 76.0517C29.2395 78.4365 29.5485 80.4582 29.8005 82.3839C29.864 80.8865 29.555 79.2178 29.073 77.5628C28.924 77.0556 28.7618 76.5485 28.5865 76.0517ZM32.7214 86.1085C32.901 83.9635 32.4672 81.5375 31.7704 79.1355C31.4417 78.0082 31.0538 76.8877 30.6441 75.805C31.8514 79.8037 32.3226 83.0281 32.7214 86.1085ZM32.0092 78.9676C32.8397 81.8185 33.302 84.7208 32.8441 87.1982L32.6951 88.0137L32.5702 87.0371C32.007 82.6237 31.4198 78.0254 28.7771 71.3196L28.9985 71.0969L29.0028 71.1072C30.0064 73.3687 31.1875 76.1442 32.0092 78.9676ZM56.9629 83.566C56.6189 81.7054 56.9651 79.533 57.5874 77.3949C58.2009 75.291 59.0818 73.2214 59.829 71.5321L59.8334 71.5218L60.0547 71.7445C58.0892 76.7336 57.6531 80.1532 57.2324 83.4358L57.1119 84.3816L56.9629 83.566ZM57.8284 77.5662C57.3463 79.2178 57.0352 80.8865 57.1009 82.3873C57.3529 80.4582 57.6619 78.44 58.3149 76.0517C58.1396 76.5519 57.9752 77.0556 57.8284 77.5628V77.5662Z" fill="#008037"/>
<mask id="mask3_691_18017" style="mask-type:luminance" maskUnits="userSpaceOnUse" x="7" y="88" width="72" height="12">
<path d="M7.85986 88.4492H78.54V100H7.85986V88.4492Z" fill="white"/>
</mask>
<g mask="url(#mask3_691_18017)">
<path fill-rule="evenodd" clip-rule="evenodd" d="M78.2309 99.9929C54.6796 91.9714 31.3825 91.9714 8.05469 99.9929C31.1129 85.6118 54.4714 84.1966 78.2309 99.9929Z" fill="#008037"/>
</g>
<path fill-rule="evenodd" clip-rule="evenodd" d="M61.4374 41.4886L76.1624 46.3817C76.2435 45.9362 76.3991 45.5147 76.6248 45.1618C76.8636 44.7883 77.1507 44.5416 77.4531 44.4183C76.2128 37.5926 75.9828 30.3935 76.708 23.3863C76.2172 23.4342 75.7176 23.1704 75.3451 22.5913C75.1304 22.2521 74.9836 21.8477 74.9025 21.4194L75.0734 21.3235C69.5274 24.3731 63.2846 26.4701 58.0366 27.5118V28.5809C58.4201 28.5329 58.7575 28.5397 59.2659 28.8241L60.8348 29.715C62.2723 30.534 61.8822 36.7531 61.6368 39.299C61.5667 40.0152 61.5031 40.7519 61.4352 41.4886H61.4374ZM69.4617 36.9519C68.182 37.1437 67.0469 35.6772 66.9242 33.683C66.8015 31.6853 67.7416 29.9104 69.0212 29.7219C70.577 29.4889 71.815 31.675 71.5258 34.0256C71.3374 35.5675 70.5135 36.7942 69.4617 36.9519Z" fill="#008037"/>
<path fill-rule="evenodd" clip-rule="evenodd" d="M69.1859 33.4772L69.2538 35.3549C68.6512 35.3995 68.6403 34.464 68.6228 34.3989C68.6162 34.3715 68.5504 34.2961 68.5483 34.5291C68.5461 34.7107 68.5263 35.4235 68.5899 35.5023C68.7082 35.653 69.0895 35.6667 69.2626 35.6462L69.2911 36.4035L69.5518 36.3829L69.5233 35.5811C70.2508 35.259 70.413 33.9672 69.7863 33.1003L69.4204 32.6788L69.3656 31.0821C69.8827 31.0546 69.9112 31.8016 69.9222 31.829C69.9309 31.8496 69.9988 31.9284 69.9901 31.6646L69.9638 30.8765L69.3524 30.8011L69.3283 30.0438L69.0676 30.0644L69.0961 30.873C68.4365 31.1883 68.3269 32.2745 68.855 33.066C68.9361 33.1894 69.0369 33.3162 69.1574 33.4464L69.1859 33.4772ZM69.1048 31.1849L69.1465 32.3704C68.8375 31.973 68.809 31.4624 69.1048 31.1849ZM69.4576 33.7822C69.8542 34.2824 69.8761 34.9746 69.5102 35.259L69.4576 33.7822Z" fill="#008037"/>
<path fill-rule="evenodd" clip-rule="evenodd" d="M17.2117 41.4576L17.2928 43.7157C16.5675 43.7705 16.5544 42.6466 16.5303 42.5644C16.5237 42.5335 16.4448 42.4444 16.4404 42.7254C16.4382 42.9413 16.4163 43.8013 16.4908 43.8973C16.6354 44.0789 17.0956 44.096 17.3038 44.072L17.3366 44.9835L17.65 44.9561L17.6149 43.9898C18.4936 43.606 18.6908 42.047 17.9326 41.0053L17.4922 40.4947L17.4265 38.5725C18.051 38.5382 18.0838 39.436 18.097 39.4702C18.1079 39.4942 18.1912 39.5901 18.1781 39.2749L18.1474 38.3258L17.4111 38.2332L17.3826 37.3184L17.0671 37.3458L17.1022 38.3223C16.3068 38.7027 16.1753 40.0082 16.8107 40.9642C16.9115 41.1115 17.0342 41.2657 17.1767 41.4199L17.2117 41.4576ZM17.1131 38.6958L17.1657 40.1247C16.7932 39.6484 16.756 39.0282 17.1131 38.6958ZM17.5404 41.8242C18.0181 42.4273 18.0422 43.26 17.6018 43.6026L17.5404 41.8242Z" fill="#008037"/>
<path d="M106.333 68.6293H118.899V80.9739H95.2808V17.6161H106.333V68.6293Z" fill="#004AAD"/>
<path d="M130.501 17.6161H139.846C146.034 17.6161 149.127 21.7032 149.127 29.8606V68.7294C149.127 76.8952 146.034 80.9739 139.846 80.9739H130.501C124.314 80.9739 121.22 76.8952 121.22 68.7294V29.8606C121.22 21.7032 124.314 17.6161 130.501 17.6161ZM138.075 66.4607V32.1293C138.075 30.6864 137.547 29.9607 136.497 29.9607H133.851C132.795 29.9607 132.272 30.6864 132.272 32.1293V66.4607C132.272 67.912 132.795 68.6293 133.851 68.6293H136.497C137.547 68.6293 138.075 67.912 138.075 66.4607Z" fill="#004AAD"/>
<path d="M174.635 80.9739L173.355 71.4986H163.647L162.324 80.9739H151.464L161.876 17.6161H175.318L185.73 80.9739H174.635ZM165.354 59.2541H171.669L168.576 36.4666L165.354 59.2541Z" fill="#004AAD"/>
<path d="M206.754 17.6161H216.846V80.9739H207.394L198.369 47.7102V80.9739H188.256V17.6161H197.729L206.754 51.4803V17.6161Z" fill="#004AAD"/>
<path d="M221.898 17.6161H232.95V80.9739H221.898V17.6161Z" fill="#004AAD"/>
<path d="M262.296 29.9607H249.046V45.3414H260.525V56.6851H249.046V80.9739H237.994V17.6161H262.296V29.9607Z" fill="#004AAD"/>
<path d="M285.46 80.9739H274.429V60.4552L263.249 17.6161H274.536L279.848 44.3739L284.777 17.6161H295.999L285.46 60.255V80.9739Z" fill="#004AAD"/>
</svg>
