<svg width="34" height="33" viewBox="0 0 34 33" fill="none" xmlns="http://www.w3.org/2000/svg">
<path d="M17 21.3191C15.6405 21.3191 14.5385 22.39 14.5385 23.711C14.5385 25.032 15.6405 26.1029 17 26.1029C18.3595 26.1029 19.4615 25.032 19.4615 23.711C19.4615 22.39 18.3595 21.3191 17 21.3191ZM17 21.3191L20.6923 12.9475M7.15385 16.5353C7.15385 11.2513 11.5621 6.96776 17 6.96776C22.4379 6.96776 26.8462 11.2513 26.8462 16.5353M33 16.5353C33 25.1219 25.8366 32.0826 17 32.0826C8.16344 32.0826 1 25.1219 1 16.5353C1 7.9488 8.16344 0.988037 17 0.988037C25.8366 0.988037 33 7.9488 33 16.5353Z" stroke="white" stroke-linecap="round" stroke-linejoin="round"/>
</svg>
