<svg width="148" height="42" viewBox="0 0 148 42" fill="none" xmlns="http://www.w3.org/2000/svg">
<rect width="148" height="40" rx="12" fill="#D30744"/>
<rect x="4" y="4" width="55" height="32" rx="8" fill="white"/>
<g filter="url(#filter0_dd_3509_18509)">
<path d="M80.374 14.958H81.748V25H80.374V14.958ZM83.7988 17.6787H84.9678V18.7178C85.3141 18.2894 85.681 17.9818 86.0684 17.7949C86.4557 17.6081 86.8864 17.5146 87.3604 17.5146C88.3994 17.5146 89.1012 17.877 89.4658 18.6016C89.6663 18.998 89.7666 19.5654 89.7666 20.3037V25H88.5156V20.3857C88.5156 19.9391 88.4495 19.5791 88.3174 19.3057C88.0986 18.8499 87.7021 18.6221 87.1279 18.6221C86.8363 18.6221 86.597 18.6517 86.4102 18.7109C86.0729 18.8112 85.7767 19.0117 85.5215 19.3125C85.3164 19.554 85.182 19.8047 85.1182 20.0645C85.0589 20.3197 85.0293 20.6865 85.0293 21.165V25H83.7988V17.6787ZM92.5352 23.0518C92.5352 23.4072 92.665 23.6875 92.9248 23.8926C93.1846 24.0977 93.4922 24.2002 93.8477 24.2002C94.2806 24.2002 94.6999 24.0999 95.1055 23.8994C95.7891 23.5667 96.1309 23.0221 96.1309 22.2656V21.2744C95.9805 21.3701 95.7868 21.4499 95.5498 21.5137C95.3128 21.5775 95.0804 21.623 94.8525 21.6504L94.1074 21.7461C93.6608 21.8053 93.3258 21.8988 93.1025 22.0264C92.7243 22.2406 92.5352 22.5824 92.5352 23.0518ZM95.5156 20.5635C95.7982 20.527 95.9873 20.4085 96.083 20.208C96.1377 20.0986 96.165 19.9414 96.165 19.7363C96.165 19.3171 96.0146 19.014 95.7139 18.8271C95.4176 18.6357 94.9915 18.54 94.4355 18.54C93.793 18.54 93.3372 18.7132 93.0684 19.0596C92.918 19.251 92.82 19.5358 92.7744 19.9141H91.626C91.6488 19.0117 91.9404 18.3851 92.501 18.0342C93.0661 17.6787 93.7201 17.501 94.4629 17.501C95.3242 17.501 96.0238 17.665 96.5615 17.9932C97.0947 18.3213 97.3613 18.8317 97.3613 19.5244V23.7422C97.3613 23.8698 97.3864 23.9723 97.4365 24.0498C97.4912 24.1273 97.6029 24.166 97.7715 24.166C97.8262 24.166 97.8877 24.1637 97.9561 24.1592C98.0244 24.1501 98.0973 24.1387 98.1748 24.125V25.0342C97.9834 25.0889 97.8376 25.123 97.7373 25.1367C97.637 25.1504 97.5003 25.1572 97.3271 25.1572C96.9033 25.1572 96.5957 25.0068 96.4043 24.7061C96.304 24.5465 96.2334 24.321 96.1924 24.0293C95.9417 24.3574 95.5817 24.6423 95.1123 24.8838C94.6429 25.1253 94.1257 25.2461 93.5605 25.2461C92.8815 25.2461 92.3255 25.041 91.8926 24.6309C91.4642 24.2161 91.25 23.6989 91.25 23.0791C91.25 22.4001 91.4619 21.8737 91.8857 21.5C92.3096 21.1263 92.8656 20.8962 93.5537 20.8096L95.5156 20.5635ZM102.208 17.4668C103.033 17.4668 103.703 17.6673 104.218 18.0684C104.737 18.4694 105.049 19.1598 105.154 20.1396H103.958C103.885 19.6885 103.719 19.3148 103.459 19.0186C103.199 18.7178 102.782 18.5674 102.208 18.5674C101.424 18.5674 100.864 18.9502 100.526 19.7158C100.308 20.2126 100.198 20.8255 100.198 21.5547C100.198 22.2884 100.353 22.9059 100.663 23.4072C100.973 23.9085 101.461 24.1592 102.126 24.1592C102.636 24.1592 103.04 24.0042 103.336 23.6943C103.637 23.3799 103.844 22.9515 103.958 22.4092H105.154C105.018 23.3799 104.676 24.0908 104.129 24.542C103.582 24.9886 102.882 25.2119 102.03 25.2119C101.073 25.2119 100.31 24.8633 99.7402 24.166C99.1706 23.4642 98.8857 22.5892 98.8857 21.541C98.8857 20.2559 99.1979 19.2555 99.8223 18.54C100.447 17.8245 101.242 17.4668 102.208 17.4668ZM106.631 15.6348H107.875V17.6787H109.044V18.6836H107.875V23.4619C107.875 23.7171 107.962 23.888 108.135 23.9746C108.23 24.0247 108.39 24.0498 108.613 24.0498C108.673 24.0498 108.736 24.0498 108.805 24.0498C108.873 24.0452 108.953 24.0384 109.044 24.0293V25C108.903 25.041 108.755 25.0706 108.6 25.0889C108.449 25.1071 108.285 25.1162 108.107 25.1162C107.533 25.1162 107.144 24.9704 106.938 24.6787C106.733 24.3825 106.631 23.9997 106.631 23.5303V18.6836H105.64V17.6787H106.631V15.6348ZM110.281 17.7129H111.532V25H110.281V17.7129ZM110.281 14.958H111.532V16.3525H110.281V14.958ZM114 17.6787L115.955 23.6396L117.999 17.6787H119.346L116.584 25H115.271L112.571 17.6787H114ZM123.447 17.5146C123.967 17.5146 124.47 17.6377 124.958 17.8838C125.446 18.1253 125.817 18.4398 126.072 18.8271C126.318 19.1963 126.482 19.627 126.564 20.1191C126.637 20.4564 126.674 20.9941 126.674 21.7324H121.308C121.33 22.4753 121.506 23.0723 121.834 23.5234C122.162 23.9701 122.67 24.1934 123.358 24.1934C124.001 24.1934 124.514 23.9814 124.896 23.5576C125.115 23.3115 125.27 23.0267 125.361 22.7031H126.571C126.539 22.972 126.432 23.2728 126.25 23.6055C126.072 23.9336 125.872 24.2025 125.648 24.4121C125.275 24.7767 124.812 25.0228 124.261 25.1504C123.965 25.2233 123.63 25.2598 123.256 25.2598C122.344 25.2598 121.572 24.9294 120.938 24.2686C120.305 23.6032 119.988 22.6735 119.988 21.4795C119.988 20.3037 120.307 19.349 120.945 18.6152C121.583 17.8815 122.417 17.5146 123.447 17.5146ZM125.409 20.7549C125.359 20.2217 125.243 19.7956 125.061 19.4766C124.723 18.8841 124.16 18.5879 123.372 18.5879C122.807 18.5879 122.333 18.793 121.95 19.2031C121.567 19.6087 121.365 20.126 121.342 20.7549H125.409Z" fill="white"/>
</g>
<defs>
<filter id="filter0_dd_3509_18509" x="62" y="3" width="83" height="39" filterUnits="userSpaceOnUse" color-interpolation-filters="sRGB">
<feFlood flood-opacity="0" result="BackgroundImageFix"/>
<feColorMatrix in="SourceAlpha" type="matrix" values="0 0 0 0 0 0 0 0 0 0 0 0 0 0 0 0 0 0 127 0" result="hardAlpha"/>
<feOffset/>
<feGaussianBlur stdDeviation="0.5"/>
<feColorMatrix type="matrix" values="0 0 0 0 0 0 0 0 0 0 0 0 0 0 0 0 0 0 0.4 0"/>
<feBlend mode="normal" in2="BackgroundImageFix" result="effect1_dropShadow_3509_18509"/>
<feColorMatrix in="SourceAlpha" type="matrix" values="0 0 0 0 0 0 0 0 0 0 0 0 0 0 0 0 0 0 127 0" result="hardAlpha"/>
<feMorphology radius="6" operator="erode" in="SourceAlpha" result="effect2_dropShadow_3509_18509"/>
<feOffset dy="6"/>
<feGaussianBlur stdDeviation="3"/>
<feColorMatrix type="matrix" values="0 0 0 0 0 0 0 0 0 0 0 0 0 0 0 0 0 0 0.16 0"/>
<feBlend mode="normal" in2="effect1_dropShadow_3509_18509" result="effect2_dropShadow_3509_18509"/>
<feBlend mode="normal" in="SourceGraphic" in2="effect2_dropShadow_3509_18509" result="shape"/>
</filter>
</defs>
</svg>
