<svg width="76" height="42" viewBox="0 0 76 42" fill="none" xmlns="http://www.w3.org/2000/svg">
<rect width="76" height="40" rx="12" fill="#D9D9D9"/>
<g filter="url(#filter0_dd_3602_18001)">
<g clip-path="url(#clip0_3602_18001)">
<path d="M26.75 20C26.75 23.7279 23.7279 26.75 20 26.75C16.2721 26.75 13.25 23.7279 13.25 20C13.25 16.2721 16.2721 13.25 20 13.25C23.7279 13.25 26.75 16.2721 26.75 20Z" stroke="#010E2A" stroke-width="0.75"/>
</g>
</g>
<rect x="40" y="4" width="32" height="32" rx="8" fill="#FFFFFE"/>
<path d="M56 18.1528V12.875M58.125 14.8187C60.601 15.6882 62.375 18.0341 62.375 20.7917C62.375 24.2895 59.5208 27.125 56 27.125C52.4792 27.125 49.625 24.2895 49.625 20.7917C49.625 18.0341 51.399 15.6882 53.875 14.8187" stroke="#010E2A" stroke-width="0.75" stroke-linecap="round" stroke-linejoin="round"/>
<defs>
<filter id="filter0_dd_3602_18001" x="3" y="3" width="34" height="39" filterUnits="userSpaceOnUse" color-interpolation-filters="sRGB">
<feFlood flood-opacity="0" result="BackgroundImageFix"/>
<feColorMatrix in="SourceAlpha" type="matrix" values="0 0 0 0 0 0 0 0 0 0 0 0 0 0 0 0 0 0 127 0" result="hardAlpha"/>
<feOffset/>
<feGaussianBlur stdDeviation="0.5"/>
<feColorMatrix type="matrix" values="0 0 0 0 0 0 0 0 0 0 0 0 0 0 0 0 0 0 0.4 0"/>
<feBlend mode="normal" in2="BackgroundImageFix" result="effect1_dropShadow_3602_18001"/>
<feColorMatrix in="SourceAlpha" type="matrix" values="0 0 0 0 0 0 0 0 0 0 0 0 0 0 0 0 0 0 127 0" result="hardAlpha"/>
<feMorphology radius="6" operator="erode" in="SourceAlpha" result="effect2_dropShadow_3602_18001"/>
<feOffset dy="6"/>
<feGaussianBlur stdDeviation="3"/>
<feColorMatrix type="matrix" values="0 0 0 0 0 0 0 0 0 0 0 0 0 0 0 0 0 0 0.16 0"/>
<feBlend mode="normal" in2="effect1_dropShadow_3602_18001" result="effect2_dropShadow_3602_18001"/>
<feBlend mode="normal" in="SourceGraphic" in2="effect2_dropShadow_3602_18001" result="shape"/>
</filter>
<clipPath id="clip0_3602_18001">
<rect x="4" y="4" width="32" height="32" rx="8" fill="white"/>
</clipPath>
</defs>
</svg>
