<svg width="32" height="32" viewBox="0 0 32 32" fill="none" xmlns="http://www.w3.org/2000/svg">
<path d="M24.2218 18.3846C23.011 18.3846 22.0294 17.4031 22.0294 16.1923C22.0294 14.9815 23.011 14 24.2218 14C25.4325 14 26.4141 14.9815 26.4141 16.1923C26.4141 17.4031 25.4325 18.3846 24.2218 18.3846Z" fill="#010E2A"/>
<path d="M8.16309 18.3847C6.95231 18.3847 5.97078 17.4032 5.97078 16.1924C5.97078 14.9816 6.95231 14.0001 8.16309 14.0001C9.37386 14.0001 10.3554 14.9816 10.3554 16.1924C10.3554 17.4032 9.37386 18.3847 8.16309 18.3847Z" fill="#010E2A"/>
<path d="M16.1631 18.3846C14.9523 18.3846 13.9708 17.4031 13.9708 16.1923C13.9708 14.9815 14.9523 14 16.1631 14C17.3739 14 18.3554 14.9815 18.3554 16.1923C18.3554 17.4031 17.3739 18.3846 16.1631 18.3846Z" fill="#010E2A"/>
</svg>
