<svg width="42" height="44" viewBox="0 0 42 44" fill="none" xmlns="http://www.w3.org/2000/svg">
<mask id="mask0_461_28373" style="mask-type:luminance" maskUnits="userSpaceOnUse" x="27" y="0" width="11" height="10">
<path d="M27.5259 0H37.9471V9.75577H27.5259V0Z" fill="white"/>
</mask>
<g mask="url(#mask0_461_28373)">
<path fill-rule="evenodd" clip-rule="evenodd" d="M36.9209 2.43414C36.8124 3.49336 36.7706 4.54373 36.7894 5.57345C37.1276 5.35364 37.4637 5.1294 37.7987 4.90074C37.709 3.35174 37.7445 1.72307 37.9198 0.00146484C34.7363 3.89167 31.4233 7.26113 27.7554 9.19221C27.8076 9.29991 27.8524 9.4135 27.8932 9.53595C30.6634 8.07693 34.515 5.37282 36.9209 2.43414Z" fill="#008037"/>
</g>
<mask id="mask1_461_28373" style="mask-type:luminance" maskUnits="userSpaceOnUse" x="38" y="9" width="4" height="8">
<path d="M38.7485 9.75574H41.4843V16.176H38.7485V9.75574Z" fill="white"/>
</mask>
<g mask="url(#mask1_461_28373)">
<path fill-rule="evenodd" clip-rule="evenodd" d="M39.6272 11.4008C39.3788 11.8773 39.1481 12.3612 38.9331 12.8539C38.954 13.8792 39.0281 14.8986 39.1523 15.9136C39.6669 13.8482 40.4278 11.8035 41.4841 9.78394C40.647 10.0495 39.812 10.2944 38.9801 10.5127C38.9582 10.8756 38.9435 11.2385 38.9352 11.6C39.1711 11.538 39.4018 11.4731 39.6272 11.4023V11.4008Z" fill="#008037"/>
</g>
<path fill-rule="evenodd" clip-rule="evenodd" d="M27.4611 10.4521C27.4402 10.309 27.412 10.1704 27.3755 10.0376C31.6289 9.28228 35.7603 6.86879 39.8478 3.85339C37.7894 11.234 38.613 17.7797 40.8623 23.9137L28.8712 20.1784C28.96 19.8848 29.0299 19.575 29.0852 19.2564L38.8259 22.1818C37.1256 17.5481 36.7947 11.6677 38.3478 6.09133C35.2603 8.36911 30.6739 9.8827 27.4611 10.4536V10.4521Z" fill="#008037"/>
<path fill-rule="evenodd" clip-rule="evenodd" d="M36.5566 9.93375L36.5776 9.76013C36.5703 9.818 36.564 9.87588 36.5566 9.93375Z" fill="#008037"/>
<path fill-rule="evenodd" clip-rule="evenodd" d="M36.6279 9.38501C36.6353 9.32862 36.6437 9.27074 36.651 9.21436C36.6437 9.27223 36.6353 9.32862 36.6279 9.38501Z" fill="#008037"/>
<path fill-rule="evenodd" clip-rule="evenodd" d="M36.6519 9.21106C36.6603 9.15467 36.6687 9.09679 36.6771 9.04041L36.6519 9.21106Z" fill="#008037"/>
<path fill-rule="evenodd" clip-rule="evenodd" d="M36.6797 9.01893C36.6881 8.96848 36.6954 8.91654 36.7038 8.86609C36.6954 8.91803 36.687 8.96848 36.6797 9.01893Z" fill="#008037"/>
<path fill-rule="evenodd" clip-rule="evenodd" d="M36.707 8.84501C36.7165 8.78713 36.7249 8.72778 36.7343 8.67139C36.7249 8.72926 36.7165 8.78713 36.707 8.84501Z" fill="#008037"/>
<path fill-rule="evenodd" clip-rule="evenodd" d="M36.1079 5.20321C36.1089 5.46728 36.1141 5.73282 36.1225 5.99689C35.872 6.15327 35.6194 6.30669 35.3657 6.45864C35.3355 6.43946 35.3062 6.41733 35.278 6.39226C35.1653 6.29489 35.0766 6.16064 35.015 6.00722C34.2864 6.66222 33.5182 7.28773 32.7375 7.87192C32.2792 8.09026 31.8189 8.29532 31.3555 8.48415C31.8701 8.13304 32.3784 7.7657 32.8784 7.38509C33.8585 6.63862 34.8198 5.82576 35.7352 4.93029L36.1058 4.56738L36.1089 5.20321H36.1079Z" fill="#008037"/>
<path fill-rule="evenodd" clip-rule="evenodd" d="M4.63038 8.29525C4.67944 8.86322 4.70867 9.43266 4.72119 10.0006L4.9717 10.0626C4.96753 9.82655 4.95918 9.59051 4.94874 9.35447C5.09174 9.3471 5.23474 9.28661 5.36417 9.16859C5.48629 9.05795 5.58128 8.90895 5.64495 8.74077L9.42557 11.1425L10.4057 11.38L4.57715 7.67712L4.63038 8.29525Z" fill="#008037"/>
<path fill-rule="evenodd" clip-rule="evenodd" d="M2.61692 9.49176C2.53968 7.57985 2.29857 5.66498 1.93115 3.75012L12.4703 10.5805L12.5956 10.6601C12.4693 10.9095 12.3607 11.1794 12.2626 11.4612L11.986 11.2857L3.58556 5.94971C3.82459 7.19923 3.96655 8.50187 4.00517 9.82811L2.61692 9.49176Z" fill="#008037"/>
<mask id="mask2_461_28373" style="mask-type:luminance" maskUnits="userSpaceOnUse" x="0" y="16" width="3" height="7">
<path d="M0 16.5537H2.40803V22.974H0V16.5537Z" fill="white"/>
</mask>
<g mask="url(#mask2_461_28373)">
<path fill-rule="evenodd" clip-rule="evenodd" d="M1.72121 21.1137C1.94354 20.6446 2.14813 20.1666 2.33705 19.6827C2.28486 18.7061 2.18257 17.7369 2.03122 16.7765C1.60535 18.7799 0.943589 20.7803 0 22.7763C0.791195 22.4694 1.5803 22.1818 2.36732 21.9221C2.37567 21.5725 2.3788 21.2258 2.37567 20.8806C2.1523 20.9529 1.93415 21.0311 1.72121 21.1137Z" fill="#008037"/>
</g>
<path fill-rule="evenodd" clip-rule="evenodd" d="M11.6477 21.7331L11.6571 22.186C8.2669 23.4105 4.98731 25.6661 1.75155 28.3334C3.48112 21.1563 2.48742 14.9603 0.143066 9.2467L11.7104 12.0526C11.6342 12.3388 11.5778 12.6383 11.535 12.9466L2.14297 10.7721C3.91429 15.0887 4.41844 20.6813 3.11161 26.1028C5.47998 24.1496 8.83368 22.6286 11.6477 21.7346V21.7331Z" fill="#008037"/>
<path fill-rule="evenodd" clip-rule="evenodd" d="M4.32558 23.474C4.79007 19.8493 4.55521 16.0845 3.58136 12.659L3.41748 12.0822L11.677 13.9941L11.6551 14.3216C11.6342 14.624 11.6165 14.9264 11.5946 15.2303C11.5528 15.7939 11.533 16.3781 11.5455 16.946C11.5465 17.0213 11.5507 17.1393 11.558 17.2794L11.5893 18.8299C11.2052 18.0702 11.2814 16.0874 11.3472 15.1934C11.3691 14.8969 11.3868 14.593 11.4077 14.2876L3.81308 12.5292L4.64289 12.7209C4.61262 12.9068 4.54791 13.0853 4.44979 13.2373C4.34646 13.3966 4.21911 13.5072 4.08342 13.5662C4.7504 16.3766 4.95081 19.3728 4.7003 22.3174L4.71074 22.1905C4.93307 22.1551 5.16479 22.2495 5.34223 22.4752C5.44453 22.608 5.51759 22.7688 5.55934 22.9443L5.48106 22.9886C7.44756 21.8615 9.62178 20.969 11.6196 20.3538L11.6269 20.7094C10.3838 21.0929 9.14895 21.562 7.94545 22.1064C6.8359 22.6095 5.73574 23.1833 4.67212 23.856L4.24208 24.129L4.32558 23.474Z" fill="#008037"/>
<path fill-rule="evenodd" clip-rule="evenodd" d="M4.70025 22.3204L4.68555 22.4866C4.6908 22.4317 4.695 22.3753 4.70025 22.3204Z" fill="#008037"/>
<path fill-rule="evenodd" clip-rule="evenodd" d="M4.63267 23.0167C4.62637 23.0716 4.62007 23.1265 4.61377 23.1814L4.63267 23.0167Z" fill="#008037"/>
<path fill-rule="evenodd" clip-rule="evenodd" d="M19.9936 8.2511V8.15226C19.9936 7.81148 20.076 7.49578 20.2159 7.24499C20.408 6.89831 20.7075 6.67407 21.0426 6.67407H22.506C23.0822 6.67407 23.555 7.33941 23.555 8.15226V21.8572C23.555 21.9812 23.5446 22.1007 23.5237 22.2157H20.0249C20.004 22.1007 19.9936 21.9812 19.9936 21.8572V21.7599C19.9936 18.4598 19.9936 11.5615 19.9936 8.2511ZM27.6467 13.0117L27.3147 20.1091C27.2688 20.205 27.1509 20.3643 27.1091 20.4204C26.9024 20.6977 26.6937 20.9603 26.4964 21.2495C26.1321 21.7805 25.7417 22.2157 25.1938 22.2157H24.3618C24.342 22.1877 24.3243 22.1567 24.3065 22.1257C24.1677 21.875 24.0852 21.5593 24.0852 21.2185V9.03888C24.0852 8.6981 24.1677 8.3824 24.3065 8.13161C24.4996 7.78493 24.7992 7.56069 25.1343 7.56069H26.5977C27.1738 7.56069 27.6467 8.22603 27.6467 9.04036V13.0117ZM19.4487 21.5179V21.5312C19.4487 21.7776 19.4049 22.0107 19.3287 22.2157H18.8433C18.4811 22.2157 18.1325 22.3928 17.8809 22.7704C17.8308 22.8471 17.787 22.9268 17.7494 23.0094H16.9363C16.6013 23.0094 16.3017 22.7867 16.1096 22.4385C15.9708 22.1877 15.8873 21.872 15.8873 21.5312V9.35163C15.8873 9.01085 15.9708 8.69515 16.1096 8.44436C16.3017 8.09768 16.6013 7.87344 16.9363 7.87344H18.3997C18.9769 7.87344 19.4477 8.53878 19.4477 9.35163V21.5179H19.4487ZM27.9285 19.1812L28.1905 19.3685C28.2072 19.2933 28.2239 19.2166 28.2385 19.1399L28.0308 19.0779L28.1759 17.6425C28.2082 17.3238 28.2385 17.0052 28.2729 16.688C28.3303 16.1495 28.3679 15.6008 28.3742 15.0549C28.3773 14.8558 28.37 14.4132 28.3345 14.1152L28.1414 14.0163L27.8972 19.2638L27.9295 19.1812H27.9285ZM24.2084 28.0016C27.8481 28.0016 28.3585 27.2197 30.0537 24.4802L27.511 22.6229L26.7031 22.0328C26.4567 22.3588 26.1916 22.6288 25.89 22.7955L25.8847 22.7985L25.8336 22.825L25.8085 22.8383L25.8054 22.8398L25.7814 22.8501L25.7772 22.853L25.7522 22.8634L25.7491 22.8648L25.724 22.8752L25.7198 22.8766L25.6948 22.887L25.6916 22.8884L25.6812 22.8914L25.6624 22.8988L25.6353 22.9076L25.6321 22.9091L25.605 22.9165L25.6029 22.9179L25.5893 22.9209L25.5424 22.9342L25.5152 22.9416H25.5121L25.4839 22.9475L25.4818 22.9489L25.4526 22.9534L25.4505 22.9548L25.4213 22.9593L25.4203 22.9607L25.39 22.9652H25.3879L25.3576 22.9681H25.3566L25.3242 22.9725L25.2929 22.9755L25.2606 22.977H25.2282L25.1948 22.9784C25.1948 22.9799 23.1542 22.9784 22.9778 22.9784H20.3996C19.5875 22.9784 17.9373 22.4739 18.1262 24.318C18.2056 25.0969 18.5417 26.0174 18.6638 26.5205C18.8631 27.3333 19.4978 28.0002 20.075 28.0002H24.2084V28.0016ZM11.9438 20.1297V12.3847L11.9491 12.3685L11.9438 12.367V11.1913C11.9438 10.849 12.0274 10.5348 12.1662 10.284C12.3582 9.93583 12.6578 9.71159 12.9918 9.71159H14.4563C15.0324 9.71159 15.5042 10.3784 15.5042 11.1913V21.3217C15.5042 22.1361 15.0324 22.7999 14.4563 22.7999H12.9918C12.6578 22.7999 12.3582 22.5772 12.1662 22.229C12.0274 21.9782 11.9438 21.6625 11.9438 21.3217V20.1474L11.9491 20.1445L11.9438 20.1283V20.1297Z" fill="#100F0D"/>
<path fill-rule="evenodd" clip-rule="evenodd" d="M28.676 27.143C28.5027 27.3525 28.319 27.5472 28.1238 27.7198C26.9537 28.748 25.3734 28.7849 24.0384 28.7849H20.097C19.6795 28.7849 19.262 28.5459 18.9249 28.1653C18.6232 27.8275 18.3842 27.3761 18.2641 26.8848C18.1556 26.4422 18.0042 26.0144 17.8936 25.5645C17.8216 25.2694 17.7589 24.9626 17.7276 24.6513C17.7057 24.4403 17.7015 24.2294 17.7193 24.0258H17.1055C16.6369 24.0258 16.1974 23.7204 15.9104 23.2026L15.8665 23.1185C15.5889 23.5537 15.187 23.8266 14.7413 23.8266H13.3458C13.0692 23.8266 12.803 23.7219 12.5713 23.5272C12.5713 27.5384 13.3719 30.6939 15.9657 31.61C15.9083 31.5908 16.5189 33.7019 16.5993 34.0737C16.8112 35.0473 16.9938 36.1936 17.1327 37.5552H24.2534C24.3912 36.1936 24.5739 35.0473 24.7847 34.0737C25.0154 33.0174 25.2795 32.1632 25.5592 31.4536C25.4673 31.4861 28.676 30.1717 28.676 27.143ZM27.3222 38.0642L26.3921 35.5681C26.2721 36.1951 26.1667 36.8574 26.0634 37.5892L26.0341 37.8001C26.4631 37.8783 26.8932 37.9668 27.3222 38.0642ZM24.577 36.9799C24.554 37.1746 24.5332 37.3679 24.5123 37.5641L24.719 37.5892C25.007 37.629 25.2951 37.6733 25.5822 37.7219L25.5613 37.6187C25.3463 36.5639 25.5289 35.3571 25.8765 34.1828L25.7179 33.758L25.3734 32.8345C25.244 33.2741 25.1312 33.7255 25.0331 34.1799C24.8338 35.0945 24.6887 36.0343 24.577 36.9799Z" fill="#100F0D"/>
<path fill-rule="evenodd" clip-rule="evenodd" d="M25.8099 37.5168C26.0823 35.5902 26.3547 33.5912 27.6334 30.6599C26.6804 32.6028 25.3851 35.4308 25.8099 37.5168ZM14.2008 35.9531C13.9983 34.5162 13.7948 33.0277 12.8418 30.8414C13.5516 32.2901 14.5181 34.3996 14.2008 35.9531ZM15.5859 37.5168C16.0108 35.4308 14.7144 32.6028 13.7624 30.6599C15.0411 33.5912 15.3135 35.5902 15.5859 37.5168ZM27.195 35.9531C26.8777 34.3996 27.8442 32.2901 28.554 30.8414C27.601 33.0277 27.3975 34.5162 27.195 35.9531Z" fill="#008037"/>
<path fill-rule="evenodd" clip-rule="evenodd" d="M25.8809 37.4681L25.8214 37.893L25.7494 37.5419C25.5322 36.4753 25.7514 35.2258 26.147 33.9984C26.5385 32.7842 27.1021 31.5893 27.5791 30.6156L27.5812 30.6097L27.6866 30.7056C26.4289 33.5912 26.1491 35.5695 25.8809 37.4696V37.4681ZM25.8088 37.0728C25.9988 35.7465 26.2232 34.3583 26.7994 32.6338C26.6032 33.1014 26.4195 33.5853 26.2619 34.0707C25.9299 35.1048 25.7233 36.1493 25.8088 37.0728ZM14.1392 35.9708L14.133 35.9221C13.9326 34.5088 13.7249 33.0365 12.7886 30.8886L12.893 30.7912L12.8961 30.7971C13.252 31.5229 13.6716 32.4154 13.9639 33.3212C14.2603 34.2418 14.4252 35.1771 14.2614 35.9781L14.1904 36.3292L14.1392 35.9708ZM13.6173 32.7429C13.9284 33.7697 14.0756 34.6401 14.1956 35.4692C14.2259 34.8245 14.0787 34.1061 13.8491 33.3935C13.7781 33.1752 13.7008 32.9568 13.6173 32.7429ZM15.587 37.0728C15.6726 36.1493 15.4659 35.1048 15.134 34.0707C14.9774 33.5853 14.7927 33.1029 14.5975 32.6367C15.1726 34.3583 15.397 35.7465 15.587 37.0728ZM15.2478 33.9984C15.6433 35.2258 15.8636 36.4753 15.6454 37.5419L15.5745 37.893L15.515 37.4726C15.2467 35.5725 14.967 33.5927 13.7082 30.7056L13.8136 30.6097L13.8157 30.6142C14.2937 31.5878 14.8563 32.7828 15.2478 33.9984ZM27.1345 35.9781C26.9706 35.1771 27.1355 34.2418 27.4319 33.3212C27.7242 32.4154 28.1438 31.5244 28.4997 30.7971L28.5018 30.7927L28.6073 30.8886C27.671 33.0365 27.4633 34.5088 27.2629 35.9221L27.2054 36.3292L27.1345 35.9781ZM27.5468 33.395C27.3171 34.1061 27.1689 34.8245 27.2002 35.4707C27.3203 34.6401 27.4674 33.7712 27.7785 32.7429C27.695 32.9583 27.6167 33.1752 27.5468 33.3935V33.395Z" fill="#008037"/>
<mask id="mask3_461_28373" style="mask-type:luminance" maskUnits="userSpaceOnUse" x="3" y="38" width="35" height="6">
<path d="M3.74414 38.0806H37.4127V43.0536H3.74414V38.0806Z" fill="white"/>
</mask>
<g mask="url(#mask3_461_28373)">
<path fill-rule="evenodd" clip-rule="evenodd" d="M37.2654 43.0505C26.0467 39.597 14.9491 39.597 3.83691 43.0505C14.8207 36.8589 25.9476 36.2496 37.2654 43.0505Z" fill="#008037"/>
</g>
<path fill-rule="evenodd" clip-rule="evenodd" d="M29.266 17.8623L36.2803 19.969C36.3189 19.7772 36.393 19.5957 36.5005 19.4438C36.6143 19.283 36.751 19.1768 36.895 19.1237C36.3043 16.185 36.1947 13.0855 36.5402 10.0686C36.3063 10.0893 36.0684 9.9757 35.8909 9.72638C35.7886 9.58033 35.7187 9.40625 35.6801 9.22185L35.7615 9.18054C33.1196 10.4935 30.1459 11.3964 27.646 11.8448V12.3051C27.8287 12.2844 27.9894 12.2874 28.2316 12.4098L28.9789 12.7934C29.6636 13.146 29.4779 15.8236 29.3609 16.9197C29.3275 17.228 29.2973 17.5452 29.2649 17.8623H29.266ZM33.0883 15.9091C32.4788 15.9917 31.9381 15.3603 31.8796 14.5017C31.8212 13.6417 32.269 12.8775 32.8785 12.7964C33.6196 12.696 34.2094 13.6372 34.0716 14.6493C33.9818 15.3131 33.5894 15.8413 33.0883 15.9091Z" fill="#008037"/>
<path fill-rule="evenodd" clip-rule="evenodd" d="M32.9566 14.4131L32.989 15.2216C32.7019 15.2407 32.6967 14.838 32.6884 14.81C32.6852 14.7982 32.6539 14.7657 32.6529 14.866C32.6518 14.9442 32.6424 15.2511 32.6727 15.285C32.7291 15.3499 32.9107 15.3558 32.9931 15.347L33.0067 15.673L33.1309 15.6641L33.1174 15.3189C33.4639 15.1803 33.5411 14.6241 33.2426 14.2509L33.0683 14.0694L33.0422 13.3819C33.2885 13.3701 33.3021 13.6917 33.3073 13.7035C33.3115 13.7124 33.3439 13.7463 33.3397 13.6327L33.3272 13.2934L33.0359 13.261L33.0245 12.9349L32.9002 12.9438L32.9138 13.2919C32.5996 13.4277 32.5474 13.8953 32.799 14.2361C32.8376 14.2892 32.8856 14.3438 32.943 14.3999L32.9566 14.4131ZM32.918 13.4262L32.9378 13.9366C32.7906 13.7655 32.7771 13.5457 32.918 13.4262ZM33.086 14.5444C33.275 14.7598 33.2854 15.0578 33.1111 15.1803L33.086 14.5444Z" fill="#008037"/>
<path fill-rule="evenodd" clip-rule="evenodd" d="M8.19868 17.849L8.2373 18.8212C7.89181 18.8448 7.88554 18.3609 7.87406 18.3255C7.87093 18.3122 7.83335 18.2739 7.83127 18.3948C7.83022 18.4878 7.81978 18.858 7.85527 18.8994C7.92416 18.9775 8.14336 18.9849 8.24252 18.9746L8.25818 19.367L8.40744 19.3552L8.39074 18.9392C8.8093 18.774 8.90324 18.1027 8.54209 17.6543L8.33229 17.4344L8.30097 16.6068C8.59845 16.5921 8.61411 16.9786 8.62037 16.9933C8.62559 17.0037 8.66526 17.045 8.65899 16.9093L8.64438 16.5006L8.29367 16.4608L8.2801 16.0669L8.12979 16.0787L8.14649 16.4991C7.76759 16.6629 7.70497 17.225 8.00767 17.6366C8.05568 17.7 8.11413 17.7664 8.18198 17.8328L8.19868 17.849ZM8.15171 16.6599L8.17676 17.2751C7.99932 17.0701 7.98157 16.803 8.15171 16.6599ZM8.35525 18.0068C8.5828 18.2665 8.59428 18.625 8.38448 18.7725L8.35525 18.0068Z" fill="#008037"/>
</svg>
